# xmcd CD database file
#
# Track frame offsets:
#	150
#	8270
#	20910
#	32410
#	43245
#	53865
#	64610
#	74900
#	84645
#	94965
#	102775
#	112940
#	124080
#	133070
#
# Disc length: 1922 seconds
#
# Revision: 3
# Processed by: cddbd v1.5.1PL0 Copyright (c) Steve Scherf et al.
# Submitted via: CDex 1.50
#
DISCID=bd07800e
DTITLE=Vários - Globo Collection II - Country Music
DYEAR=1998
DGENRE=Country
TTITLE0=Willie Nelson - Things To Remember
TTITLE1=Kenny Rogers - Reuben James
TTITLE2=Patsy Cline - Walkin' After Midnight
TTITLE3=Sammy Davis Jr. - Oh Lonesome me
TTITLE4=Fats Domino -Blueberry Hill
TTITLE5=Waylon Jennings - Dream Baby
TTITLE6=Dolly Parton - Release me
TTITLE7=Donna Fargo - Sticks and Stones
TTITLE8=Billy Jo Spears - It Makes No Difference Now
TTITLE9=Ray Charles - Uuor Cheatin'  Heart
TTITLE10=Bill Browning - Country Strings
TTITLE11=Anne Murray - Last Thing on My Mind
TTITLE12=Jerry Lee Lewis - Jambalaya (On the Bayou)
TTITLE13=Johnny Cash - Big River
EXTD=YEAR: 1998
EXTT0=
EXTT1=
EXTT2=
EXTT3=
EXTT4=
EXTT5=
EXTT6=
EXTT7=
EXTT8=
EXTT9=
EXTT10=
EXTT11=
EXTT12=
EXTT13=
PLAYORDER=
